<svg xmlns="http://www.w3.org/2000/svg" width="143" height="143" viewBox="0 0 143 143" fill="none"><path fill-rule="evenodd" clip-rule="evenodd" d="M69.1923 40.6827H73.9822V43.0749H71.5873V45.3176C71.5873 47.5006 71.6172 47.5604 72.3357 47.5604C72.9943 47.5604 73.0841 47.68 73.0841 48.607C73.0841 49.534 72.9943 49.6536 72.3357 49.6536C71.5873 49.6536 71.5873 49.6835 71.5873 54.7371H73.9822V55.9332C73.9822 57.0396 73.9224 57.1293 73.144 57.1293C72.6949 57.1293 71.6172 57.0097 69.1923 56.6808V40.6827ZM124.187 86.7633C124.396 86.7633 124.636 87.0324 124.725 87.4211C124.815 87.78 124.845 88.8864 124.815 89.8433C124.725 91.3384 124.606 91.6973 123.977 92.1458C123.378 92.5644 121.881 92.7738 117.241 93.1924C113.948 93.4914 110.865 93.611 110.416 93.5213C109.967 93.4017 109.458 93.0429 109.308 92.714C109.128 92.385 108.889 91.2487 108.559 88.2285L109.458 88.1986C109.937 88.1986 113.379 87.8697 117.092 87.4809C120.774 87.1221 123.977 86.7932 124.187 86.7633ZM111.403 90.7703C111.314 90.86 111.344 91.0095 111.493 91.159C111.613 91.2786 113.499 91.1889 115.684 90.9796C117.84 90.7703 120.265 90.5011 121.043 90.3815C121.851 90.2619 122.48 90.0825 122.48 89.9629C122.48 89.8134 121.762 89.7536 120.894 89.7536C120.025 89.7835 117.571 89.9928 115.445 90.2021C113.29 90.4413 111.463 90.6805 111.403 90.7703ZM22.6403 87.451C25.5142 87.6005 26.0232 87.6902 26.6219 88.2883C27.041 88.7369 27.2805 89.3349 27.2805 89.9629C27.2805 90.7105 27.4003 90.9497 27.9391 91.0693C28.3283 91.1291 29.7952 91.2487 33.8667 91.5178V94.0596L32.7291 93.8503C32.1303 93.7606 28.478 93.4017 17.7007 92.5644V91.5178C17.7007 90.9497 17.8803 89.933 18.0599 89.2751C18.2395 88.6172 18.6287 87.8996 18.8682 87.6902C19.2275 87.3613 20.0657 87.3015 22.6403 87.451ZM22.5505 90.3815C23.748 90.5011 24.7958 90.531 24.8856 90.4413C24.9454 90.3815 24.9454 90.2619 24.8856 90.2021C24.7958 90.1423 23.7779 89.9928 22.5804 89.8732C21.4129 89.7536 20.425 89.7835 20.425 89.9031C20.395 90.0526 21.353 90.2619 22.5505 90.3815Z" fill="black"></path><path d="M70.2399 92.5643L70.3298 89.3647L70.4196 86.1351H72.4852V92.7138H79.0714V94.807L72.6349 94.9565L72.4852 101.685H70.3896L70.2399 94.9565L63.6538 94.6575V92.8633L70.2399 92.5643Z" fill="#EE1718"></path><path d="M69.1027 44.8689C69.0428 45.6165 68.9829 45.138 68.9829 43.8223C68.9829 42.5066 69.0428 41.9085 69.1027 42.4767C69.1625 43.0448 69.1625 44.1213 69.1027 44.8689Z" fill="black" fill-opacity="0.2"></path><path d="M71.797 44.869C71.7371 45.2876 71.6772 45.0185 71.6772 44.2709C71.6772 43.5234 71.7371 43.1944 71.797 43.5234C71.8569 43.8523 71.8569 44.4504 71.797 44.869Z" fill="black" fill-opacity="0.5"></path><path d="M71.7968 53.2417C71.737 53.8098 71.6771 53.2716 71.6771 52.0455C71.6771 50.8195 71.737 50.3411 71.7968 50.9989C71.8567 51.6568 71.8567 52.6735 71.7968 53.2417Z" fill="black" fill-opacity="0.3"></path><path d="M69.1025 55.7834C69.0426 56.4413 69.0127 55.7834 69.0127 54.2883C69.0127 52.7931 69.0426 52.2549 69.1025 53.0921C69.1624 53.8995 69.1624 55.1255 69.1025 55.7834Z" fill="black" fill-opacity="0.3"></path><path d="M69.1027 50.8495C69.0428 51.4176 68.9829 51.0289 68.9829 49.9524C68.9829 48.8759 69.0428 48.4273 69.1027 48.9058C69.1625 49.3842 69.1625 50.2813 69.1027 50.8495Z" fill="black" fill-opacity="0.3"></path><path d="M70.1804 89.604C70.1205 87.9593 70.1505 86.4342 70.2403 86.2249C70.3301 85.9857 70.8091 85.8661 72.6352 85.9259L70.39 86.1352L70.2702 92.5644L70.1804 89.604Z" fill="#EE1819" fill-opacity="0.7"></path><path d="M79.0717 94.8071L79.0118 93.6409H78.9819C78.9519 92.9531 79.0418 92.5644 79.1914 92.684C79.3411 92.8335 79.401 93.4016 79.2214 94.9566L72.6352 94.9865L79.0717 94.8071Z" fill="#EE1819" fill-opacity="0.7"></path><path d="M70.1205 95.1061L66.8873 95.0164L63.6841 94.9267L70.2702 94.9566L70.3002 101.535L70.1205 95.1061Z" fill="#EE1819" fill-opacity="0.7"></path><path d="M72.635 92.5641V89.2748L72.605 85.9855L72.7847 92.4146L78.6224 92.594L72.635 92.5641Z" fill="#EE1819" fill-opacity="0.5"></path><path d="M68.4737 92.6239C67.4858 92.6838 65.9291 92.6838 65.031 92.6239C64.1029 92.5641 64.9112 92.5342 66.8272 92.5342C68.7132 92.5342 69.4617 92.5641 68.4737 92.6239Z" fill="#EE1819" fill-opacity="0.5"></path><path d="M72.7248 100.04C72.6649 101.027 72.605 100.279 72.605 98.3952C72.605 96.5113 72.6649 95.704 72.7248 96.6011C72.7847 97.4981 72.7847 99.0531 72.7248 100.04Z" fill="#EE1819" fill-opacity="0.5"></path><path fill-rule="evenodd" clip-rule="evenodd" d="M65.3603 41.7293C65.4501 42.0582 65.5399 42.5665 65.5698 42.8656C65.5998 43.1945 65.3303 43.4337 64.8513 43.5234C64.2227 43.643 64.1329 43.7926 64.2526 44.5102C64.3125 44.9588 64.7915 48.0089 65.3004 51.2982C65.8093 54.5876 66.1985 57.3087 66.1386 57.3386C66.0788 57.3386 65.5698 57.4283 63.9832 57.5779L62.8755 50.8497C61.8277 44.1813 61.7978 44.1215 61.0793 44.2112C60.6901 44.2411 60.271 44.0916 60.1512 43.9122C60.0315 43.7029 59.9117 43.1945 59.9117 42.7759C59.9117 42.0582 60.0315 41.9984 62.5163 41.5797C65.0908 41.1312 65.1507 41.1312 65.3603 41.7293ZM82.6639 41.9685L87.3939 43.2244L87.0945 44.1215C86.9448 44.6298 86.7652 45.0485 86.7054 45.1083C86.6155 45.1382 86.1066 45.0485 85.5977 44.8691C85.0588 44.7196 84.5798 44.5999 84.5499 44.6598C84.49 44.6897 84.1906 45.7363 83.8913 46.9623C83.562 48.1883 83.3225 49.2349 83.3524 49.2349C83.3823 49.2648 83.7715 49.3844 84.1906 49.5339C84.8792 49.7732 84.9391 49.8928 84.6996 50.7899C84.49 51.6571 84.3703 51.7468 83.562 51.5973C82.7237 51.4477 82.6339 51.5375 82.3345 52.7336C82.1549 53.4213 81.7657 54.8567 81.4664 55.9332C80.9574 57.847 80.9275 57.8769 79.9396 57.8171C79.3708 57.7573 78.8619 57.6676 78.772 57.5779C78.6822 57.4882 79.5205 53.9297 80.6581 49.6835L82.6639 41.9685ZM55.5709 43.1945C55.6008 43.2244 56.6486 46.0951 57.906 49.5938C59.1633 53.0924 60.1812 56.4116 60.1812 56.9798C60.1812 57.6975 59.9716 58.2656 59.4627 58.774C58.9538 59.3122 58.385 59.5216 57.6665 59.5216C56.9779 59.5216 56.3193 59.2823 55.8702 58.8637C55.3314 58.3852 54.4333 56.2621 50.3918 45.0186L51.4695 44.6598C52.0682 44.4504 52.5772 44.3308 52.5772 44.3607C52.5772 44.3906 53.595 47.2613 54.8224 50.7002C56.4989 55.4248 57.1875 57.0097 57.5767 57.0695C57.876 57.0994 58.0856 56.9798 58.0856 56.7705C58.0856 56.5612 57.0677 53.5709 55.8403 50.1021C54.6129 46.6633 53.625 43.8225 53.6848 43.7926C53.7148 43.7926 54.1638 43.643 54.6428 43.4636C55.1218 43.3141 55.5409 43.1945 55.5709 43.1945ZM91.0163 44.57C91.1061 44.5999 91.615 44.7495 92.1539 44.9588C92.6927 45.1681 93.0819 45.4671 93.0221 45.6166C92.9622 45.7961 91.5851 49.0854 89.9685 52.9429C88.3818 56.8303 87.0347 60.0299 87.0347 60.0897C87.0047 60.1196 86.4958 60.0299 85.8671 59.8505C85.2384 59.6711 84.7894 59.4019 84.8193 59.2524C84.8493 59.1328 86.2264 55.7538 87.8729 51.7767C89.5194 47.8295 90.9265 44.57 91.0163 44.57ZM45.9012 47.2613C46.021 47.2613 47.9369 50.3114 50.1523 53.9895C52.3975 57.6975 54.1339 60.8672 54.0441 61.0167C53.9842 61.1961 53.5352 61.5251 52.2479 62.153L50.6013 59.372C49.7032 57.8171 48.8051 56.5612 48.5956 56.5313C48.386 56.5313 48.1465 56.6808 48.0567 56.8303C47.9968 57.0097 48.6554 58.3553 49.5535 59.8206C50.4816 61.3157 51.2001 62.6016 51.2001 62.6614C51.2001 62.7511 50.781 63.08 49.2542 63.9771L45.1528 57.0396C42.8776 53.2419 41.0514 50.1021 41.1113 50.1021C41.1412 50.0722 41.5304 49.833 41.9196 49.5638C42.3387 49.2947 42.7878 49.0555 42.9075 49.0555C43.0273 49.0555 43.8954 50.3413 44.8534 51.9262C45.8114 53.4811 46.7395 54.767 46.949 54.767C47.1586 54.767 47.3681 54.6474 47.4579 54.5278C47.5178 54.4081 46.7694 52.9429 45.7815 51.2982C44.7936 49.6536 44.0451 48.3079 44.105 48.3079C44.1349 48.278 44.5241 48.0388 44.9133 47.7697C45.3324 47.5005 45.7815 47.2613 45.9012 47.2613ZM97.0636 47.2314L98.1712 47.8893C98.77 48.2481 99.6381 48.9359 100.087 49.4143C100.536 49.8629 100.925 50.5507 100.925 50.9394C100.925 51.2982 100.267 52.6738 99.4884 53.9895C98.4407 55.694 97.8419 56.4116 97.3629 56.4715C96.854 56.5313 96.7043 56.7406 96.7342 57.5181C96.7342 58.146 96.2253 59.3421 95.2075 61.0167C94.3992 62.4222 93.6807 63.6781 93.6507 63.8276C93.5909 63.9771 93.1717 63.8575 92.6628 63.5585C92.1838 63.2594 91.7348 62.9604 91.7048 62.9006C91.6749 62.8707 91.8845 62.3025 92.1838 61.7045C92.5131 61.0765 93.1717 59.9103 93.6807 59.073C94.2195 58.2656 94.6387 57.3386 94.6387 57.0695C94.6387 56.7705 94.489 56.5313 94.3093 56.5313C94.1597 56.5313 93.2616 57.8171 90.5672 62.1829L89.7589 61.7643C89.3099 61.5251 88.8608 61.226 88.8009 61.1064C88.7411 60.9868 90.3577 58.1161 92.4233 54.7371C94.489 51.3879 96.375 48.3079 96.6145 47.9192L97.0636 47.2314ZM96.1654 53.6307C95.8062 54.2287 95.6565 54.7371 95.8062 54.7371C95.9858 54.7371 96.5846 53.9596 97.1534 53.0326C97.7222 52.0757 98.2012 51.2085 98.2012 51.0889C98.2012 50.9693 98.1113 50.8497 97.9916 50.8497C97.8419 50.8497 97.5425 51.2384 97.2731 51.687C97.0037 52.1355 96.5247 53.0027 96.1654 53.6307ZM37.4291 54.0194C37.8482 54.1091 38.896 54.8866 41.3209 57.2788L39.6743 58.9833L38.4469 57.548C37.6985 56.6808 37.0698 56.1724 36.8602 56.3219C36.6806 56.4415 36.5309 56.6808 36.5309 56.8303C36.5309 57.0097 38.2373 59.0132 40.2731 61.3157C42.3387 63.6183 44.1649 65.4424 44.3146 65.3527C44.4942 65.2928 44.6139 65.0835 44.6139 64.9041C44.6139 64.7546 44.1649 64.0369 42.5183 62.0633L44.0152 60.5682L45.0929 61.6148C45.6917 62.2128 46.3503 63.0501 46.5898 63.4987C46.8293 63.9472 47.0388 64.6948 47.0388 65.1433C47.0388 65.6218 46.7395 66.2796 46.2305 66.788C45.6917 67.3562 45.1528 67.5954 44.4343 67.5954C43.8655 67.5954 43.2668 67.5356 43.0572 67.4758C42.8476 67.3861 41.0514 65.562 39.0756 63.3791C37.0997 61.1961 35.1838 59.0132 34.8245 58.5049C34.4353 57.9965 34.136 57.1891 34.136 56.6808C34.1659 56.2023 34.4054 55.4847 34.6748 55.1258C34.9742 54.767 35.543 54.3483 35.9322 54.1689C36.3513 54.0194 37.0399 53.9297 37.4291 54.0194ZM105.775 53.84C106.045 53.84 106.673 54.0194 107.122 54.2586C107.571 54.4679 108.11 55.066 108.35 55.5146C108.559 55.993 108.679 56.7705 108.559 57.219C108.47 57.6676 107.871 58.5946 106.134 60.4486L104.638 58.9833L105.626 57.9068C106.164 57.3087 106.524 56.7107 106.434 56.5313C106.374 56.3817 106.015 56.2322 105.685 56.2322C105.296 56.2322 104.847 56.6808 104.398 57.5181C104.009 58.2058 103.29 60.2093 102.811 61.9138C102.273 63.9771 101.704 65.3527 101.225 65.9208C100.806 66.3993 100.057 66.9973 99.5483 67.2365C99.0095 67.5057 98.291 67.5954 97.6922 67.4758C97.1234 67.3861 96.4648 66.9674 96.1056 66.489C95.7463 65.9806 95.5068 65.2031 95.5068 64.5453C95.5068 63.6781 95.7763 63.1398 97.7521 60.9868L99.4585 62.3624L98.5305 63.2594C98.0215 63.7678 97.6024 64.306 97.6024 64.4556C97.6024 64.635 97.782 64.934 98.0515 65.1433C98.4407 65.4424 98.6502 65.3826 99.249 64.6948C99.7279 64.1565 100.237 62.9903 100.626 61.4653C100.955 60.1495 101.434 58.5348 101.644 57.8769C101.883 57.219 102.362 56.292 102.692 55.8435C103.021 55.365 103.74 54.7371 104.278 54.4081C104.817 54.1091 105.476 53.84 105.775 53.84ZM112.331 59.8206C112.481 59.8206 113.259 60.7476 114.098 61.854C114.906 62.9604 115.595 63.9771 115.595 64.0967C115.565 64.2163 115.175 64.5752 113.768 65.5022L113.409 64.8742C113.05 64.2462 112.84 64.336 101.943 72.649L101.285 71.7818C100.895 71.3034 100.596 70.8249 100.596 70.7352C100.596 70.6754 103.021 68.7915 105.985 66.5488C108.949 64.336 111.373 62.4222 111.373 62.3025C111.373 62.1829 111.164 61.8241 110.924 61.555C110.535 61.0765 110.565 60.9569 111.284 60.4187C111.703 60.0897 112.182 59.8206 112.331 59.8206ZM29.2263 61.3157C29.3161 61.3157 32.22 63.0501 35.7226 65.1732C39.2253 67.2964 42.3088 69.1204 42.6082 69.2101C42.8776 69.3298 43.1171 69.5092 43.1171 69.6288C43.1171 69.7484 42.7878 70.2268 41.6202 71.4828L40.5126 70.7352C39.4648 70.0175 39.375 70.0175 38.9858 70.5259C38.6565 70.9744 38.7463 71.1538 40.5724 72.9181L39.375 74.5628L34.4354 69.9876C31.741 67.4758 29.0467 64.9938 27.4002 63.4688L28.2683 62.3923C28.7473 61.8241 29.1664 61.3157 29.2263 61.3157ZM36.98 69.0905C37.1596 69.0905 36.8902 68.7317 36.3813 68.3131C35.9023 67.9243 35.2137 67.416 34.8844 67.2664C34.5551 67.087 34.8245 67.416 35.4831 68.014C36.1418 68.5822 36.8303 69.0905 36.98 69.0905ZM25.3046 69.3896C25.7836 69.3896 27.2205 69.8979 28.448 70.5259C29.8251 71.1837 30.813 71.9014 30.9926 72.3201C31.2321 72.8583 31.4716 72.9779 32.0404 72.8284C32.5793 72.7088 33.5971 73.0377 35.4233 73.875C36.8602 74.5329 38.2373 75.0711 38.4768 75.0711C38.7463 75.0711 38.9259 75.1609 38.9259 75.2207C38.9259 75.3104 38.7463 75.7888 38.4768 76.2673C38.2373 76.7756 37.8482 77.1644 37.5787 77.1644C37.3392 77.1644 35.9921 76.6261 34.585 75.9682C33.2079 75.3104 31.9206 74.8618 31.741 74.9216C31.5913 75.0113 31.4417 75.1908 31.4417 75.3104C31.4417 75.43 32.7888 76.2075 37.3692 78.51L36.8902 79.4968C36.6208 80.035 36.2914 80.4836 36.1717 80.4836C36.0519 80.4537 32.8188 78.8987 28.9868 76.9849C25.1549 75.101 21.9816 73.4863 21.9516 73.3966C21.8917 73.3368 22.1612 72.7088 22.4905 72.021C22.8497 71.3034 23.4185 70.4362 23.7478 70.0773C24.137 69.6587 24.7358 69.3896 25.3046 69.3896ZM29.1365 74.174C29.2562 74.174 29.3461 74.0843 29.3461 73.9647C29.376 73.8451 28.6276 73.3667 27.6995 72.9181C26.8014 72.4696 25.8135 72.1107 25.5441 72.1107C25.2447 72.1107 25.9033 72.5892 26.9511 73.1274C28.0288 73.6956 29.0168 74.174 29.1365 74.174ZM120.205 72.7088C120.384 72.6789 120.744 73.2471 121.043 73.9647C121.313 74.6525 121.522 75.2506 121.492 75.2805C121.432 75.2805 118.289 77.0148 114.457 79.0781C110.625 81.1415 107.452 82.816 107.392 82.7861C107.332 82.7263 107.063 82.2778 106.284 80.7527L107.482 80.2444C108.23 79.9154 108.679 79.5267 108.679 79.1978C108.679 78.8987 108.559 78.5997 108.38 78.51C108.23 78.4502 107.542 78.5698 105.685 79.2576L105.326 78.3605C105.117 77.882 105.027 77.4036 105.087 77.3438C105.176 77.2541 108.559 76.2075 112.571 74.9515C116.612 73.7255 120.055 72.7088 120.205 72.7088ZM110.924 77.9717C111.104 78.0315 111.733 77.882 112.361 77.6428C112.96 77.3737 113.469 77.1045 113.469 77.0148C113.469 76.955 113.439 76.8952 113.409 76.8952C113.349 76.9251 112.721 77.1344 111.972 77.4036C111.254 77.6428 110.775 77.9119 110.924 77.9717ZM20.1853 79.2576C20.365 79.2576 23.9574 79.8257 28.1486 80.5135C32.3697 81.2013 35.8125 81.7694 35.8424 81.7993C35.9023 81.7993 35.7526 82.3077 35.543 82.9356C35.2137 84.0121 35.1538 84.0421 34.136 83.8626C33.5672 83.7729 32.9684 83.6533 32.8188 83.6533C32.6391 83.6234 32.4894 83.8925 32.4296 84.2813C32.3697 84.8195 32.5793 85.0289 33.5672 85.3279C34.7048 85.6867 34.7647 85.7465 34.585 86.5838C34.4653 87.0922 34.3156 87.5706 34.2557 87.6304C34.1959 87.7201 30.783 86.4343 26.6517 84.7896C22.5204 83.145 19.1675 81.7395 19.1675 81.6498C19.1675 81.59 19.3471 80.9919 19.5267 80.3939C19.7063 79.7659 20.0057 79.2576 20.1853 79.2576ZM28.5976 83.2945C29.3461 83.5636 29.9448 83.6234 29.9747 83.4739C29.9747 83.3244 29.5856 83.145 29.1365 83.0253C28.6874 82.9057 28.0887 82.7562 27.8193 82.6665C27.5498 82.5768 27.3103 82.6067 27.2804 82.6964C27.2804 82.7861 27.8791 83.0552 28.5976 83.2945ZM123.169 80.5733L123.528 81.6498C123.707 82.218 123.857 82.7263 123.857 82.7562C123.827 82.7861 120.414 83.6533 116.253 84.6401C112.092 85.6269 108.589 86.4343 108.47 86.4642C108.35 86.4642 108.08 85.9857 107.871 85.4176C107.512 84.371 107.512 84.3411 108.32 84.1318C108.769 84.042 112.301 83.1749 116.163 82.2479L123.169 80.5733Z" fill="black"></path></svg>