<svg xmlns="http://www.w3.org/2000/svg" width="143" height="143" viewBox="0 0 143 143" fill="none"><path d="M100.161 68.2493C100.02 67.6462 100.149 67.0258 99.9858 66.4256C99.8531 66.4125 99.75 66.3971 99.6469 66.3936C98.6355 66.3604 97.6247 66.3207 96.6132 66.2994C95.3097 66.2715 94.0056 66.2603 92.7021 66.2389C92.583 66.2372 92.4645 66.2135 92.3466 66.1998C92.3389 66.1098 92.3335 66.0588 92.33 66.0073C92.3021 65.6132 92.279 65.2186 92.2446 64.8252C92.2209 64.5556 92.1812 64.2878 92.1498 64.0188C92.109 63.6698 92.1392 63.6343 92.4781 63.6248C92.5095 63.6242 92.5409 63.6254 92.5717 63.6242C93.1239 63.5981 93.6756 63.5726 94.2278 63.5448C94.6858 63.5217 95.1438 63.4814 95.6018 63.4737C96.8011 63.4535 98.0009 63.4476 99.2001 63.4352C99.2997 63.434 99.3986 63.4245 99.497 63.4186C99.497 62.4267 99.497 61.4728 99.497 60.4868C99.3643 60.4868 99.2529 60.4833 99.1415 60.4874C98.5164 60.5111 97.8907 60.536 97.2656 60.5615C97.1613 60.5656 97.0576 60.5739 96.9539 60.5846C96.3111 60.651 95.67 60.7321 95.0259 60.7831C94.226 60.8459 93.4243 60.8844 92.6233 60.9318C92.5634 60.9354 92.503 60.9241 92.439 60.9194C92.1007 59.4719 92.0177 58.0095 91.9425 56.5075C92.0841 56.482 92.2049 56.4494 92.3276 56.44C92.8052 56.4026 93.2839 56.3754 93.7621 56.3398C94.2296 56.3055 94.6976 56.2681 95.1645 56.2273C95.901 56.1627 96.6363 56.0898 97.3728 56.0282C97.8504 55.9885 98.3292 55.9642 98.8073 55.9292C99.0022 55.915 99.026 55.8806 99.0094 55.7029C98.9904 55.4961 98.9744 55.2893 98.9608 55.0819C98.9057 54.2512 98.8523 53.4199 98.7984 52.5892C98.7854 52.3854 98.77 52.1822 98.7552 51.973C98.639 51.973 98.5555 51.9653 98.4737 51.9742C98.1016 52.0169 97.7307 52.0678 97.358 52.1093C96.4888 52.2059 95.6178 52.2936 94.7492 52.3943C93.9114 52.4915 93.0753 52.6017 92.2381 52.7042C91.8139 52.7563 91.3902 52.8067 90.9654 52.8523C90.1163 52.943 89.2661 53.0283 88.417 53.1189C88.2872 53.1326 88.1593 53.1657 88.0212 53.1918C88.0212 53.2765 88.0171 53.3281 88.0218 53.3784C88.0988 54.1641 88.1717 54.9504 88.257 55.7355C88.3447 56.5419 88.4389 57.3483 88.5426 58.1523C88.6836 59.2461 88.8401 60.3375 88.9846 61.4307C89.1233 62.483 89.2602 63.5353 89.3881 64.5888C89.4474 65.0741 89.4764 65.5629 89.5315 66.0482C89.6234 66.8534 89.7235 67.658 89.8236 68.4626C89.8396 68.5924 89.8722 68.7198 89.9013 68.8673C90.4647 68.843 90.995 68.8282 91.5241 68.7968C92.7412 68.7245 93.957 68.6392 95.174 68.5675C96.7762 68.4727 98.3789 68.3856 99.9811 68.2938C100.03 68.2902 100.078 68.2701 100.161 68.2493Z" fill="black"></path><path d="M119.651 79.8217C118.788 79.7726 117.923 79.7329 117.06 79.6831C116.384 79.644 115.708 79.5942 115.032 79.5504C114.315 79.5041 113.597 79.4603 112.879 79.4129C112.626 79.3963 112.597 79.3572 112.592 79.1113C112.587 78.8719 112.572 78.6331 112.559 78.3944C112.55 78.2486 112.525 78.104 112.523 77.9583C112.521 77.7533 112.569 77.7035 112.775 77.6786C112.94 77.6591 113.107 77.6389 113.273 77.6324C114.26 77.5927 115.248 77.5465 116.236 77.5222C117.054 77.5014 117.872 77.5056 118.691 77.5026C119.076 77.5009 119.46 77.5097 119.845 77.5097C119.905 77.5097 119.966 77.4908 120.057 77.4754C120.063 77.3877 120.075 77.3261 120.07 77.2662C120.043 76.9492 120.071 76.6316 119.982 76.3135C119.911 76.0599 119.943 75.7784 119.913 75.5112C119.883 75.2463 119.825 74.985 119.793 74.7208C119.758 74.4435 119.704 74.3706 119.431 74.3682C119.195 74.3659 118.958 74.3949 118.723 74.4109C118.215 74.4459 117.709 74.4808 117.202 74.517C116.35 74.578 115.499 74.6438 114.647 74.7006C114.273 74.7255 113.898 74.7249 113.526 74.7492C113.09 74.7777 112.655 74.8328 112.218 74.8541C111.105 74.9092 109.99 74.9519 108.876 75.0005C108.743 75.0064 108.611 75.0206 108.464 75.0319C108.675 77.3646 108.883 79.6689 109.091 81.9749C111.329 82.0117 113.524 82.0484 115.745 82.0851C115.798 82.728 115.914 83.3454 115.931 83.9693C115.855 83.9859 115.825 83.9966 115.795 83.9984C114.941 84.0386 114.087 84.0819 113.233 84.1157C111.973 84.1654 110.713 84.2081 109.452 84.2543C109.39 84.2567 109.327 84.262 109.265 84.2697C109.158 84.2828 109.094 84.3414 109.09 84.4528C109.087 84.5257 109.085 84.5986 109.091 84.6709C109.144 85.3457 109.197 86.0212 109.255 86.6955C109.267 86.8383 109.295 86.9799 109.318 87.1381C109.559 87.1529 109.777 87.1849 109.993 87.1748C110.503 87.1511 111.012 87.1013 111.522 87.0729C112.531 87.0172 113.542 86.9716 114.551 86.9171C116.435 86.8158 118.319 86.7121 120.203 86.6054C120.386 86.5953 120.568 86.558 120.768 86.5302C120.629 84.3023 120.492 82.1136 120.352 79.8905C120.123 79.8685 119.888 79.8354 119.651 79.8217Z" fill="black"></path><path d="M104.866 86.4092C104.507 85.9246 104.136 85.4482 103.792 84.9534C103.144 84.0238 102.513 83.0829 101.873 82.1479C101.581 81.7207 101.284 81.2964 100.993 80.8752C101.134 80.6613 101.331 80.6008 101.534 80.5487C101.967 80.4373 102.409 80.3496 102.83 80.205C103.222 80.0705 103.619 79.9165 103.966 79.6955C104.706 79.2238 105.216 78.5472 105.496 77.7123C105.65 77.2549 105.753 76.7774 105.649 76.298C105.507 75.6433 105.233 75.0354 104.857 74.4796C104.772 74.354 104.653 74.2337 104.523 74.1584C104.091 73.909 103.664 73.6441 103.206 73.4528C102.104 72.9918 100.938 72.8448 99.7513 72.8573C99.2518 72.8626 98.7523 72.9059 98.2528 72.9254C97.7628 72.9444 97.2728 72.9497 96.7828 72.9716C96.4308 72.9876 96.08 73.0208 95.7364 73.0457C95.6594 73.3941 95.5124 89.0222 95.5788 89.264C95.9212 89.3511 98.2107 89.3386 98.507 89.2438C98.5129 89.1887 98.5242 89.1283 98.5248 89.0679C98.5325 88.2348 98.5319 87.4017 98.5461 86.5692C98.5668 85.3398 98.5976 84.1109 98.6249 82.8814C98.6273 82.7819 98.6373 82.6829 98.6438 82.584C98.664 82.5798 98.6847 82.5757 98.7049 82.5709C98.7475 82.6367 98.7937 82.7001 98.8317 82.7683C99.324 83.6588 99.8164 84.5488 100.306 85.4411C100.811 86.3612 101.314 87.2826 101.816 88.2046C101.97 88.4872 102.113 88.7757 102.266 89.0584C102.321 89.1585 102.383 89.2432 102.528 89.2415C103.894 89.2243 105.259 89.2136 106.626 89.1988C106.692 89.1982 106.758 89.1751 106.849 89.1579C106.804 89.0655 106.782 88.9956 106.741 88.9399C106.116 88.0943 105.49 87.2518 104.866 86.4092ZM99.6173 79.3412C99.2642 79.3945 98.933 79.2837 98.6059 79.1978C97.7989 78.9851 97.2425 78.4868 97.0002 77.6703C96.9824 77.611 96.9647 77.5494 96.9617 77.4878C96.9362 76.9201 97.0239 76.3691 97.2621 75.8536C97.3421 75.6806 97.4896 75.5349 97.6247 75.3932C97.7675 75.2433 97.9393 75.1201 98.0851 74.9732C98.3393 74.7166 98.6569 74.604 99.0005 74.5471C99.3057 74.4968 99.5966 74.3581 99.9207 74.4186C100.135 74.4583 100.358 74.4511 100.57 74.4974C100.89 74.5673 101.163 74.7326 101.383 74.9826C101.774 75.4258 102.063 75.9206 102.188 76.5048C102.246 76.7762 102.322 77.0434 102.39 77.3124C102.341 77.8599 102.217 78.3404 101.824 78.7445C101.598 78.9774 101.346 79.1018 101.039 79.145C100.566 79.212 100.091 79.2701 99.6173 79.3412Z" fill="black"></path><path d="M92.6387 79.8536C92.5646 79.5147 92.4272 79.1841 92.2026 78.8967C91.6776 78.2254 91.0383 77.6856 90.3338 77.2164C90.1786 77.1127 90.0275 76.9906 89.8563 76.9242C88.8359 76.5279 87.7925 76.343 86.7065 76.6274C86.6265 76.6481 86.5411 76.6505 86.46 76.6671C85.9712 76.7684 85.4794 76.8561 84.9953 76.977C84.3797 77.131 83.77 77.3076 83.1609 77.4865C83.027 77.5262 82.88 77.5896 82.7864 77.6874C82.3924 78.0998 82.0132 78.527 81.6357 78.9548C81.5771 79.0217 81.5344 79.1165 81.5184 79.2048C81.4769 79.4288 81.4313 79.6563 81.4284 79.8833C81.4206 80.5279 81.3916 81.1743 81.5072 81.8143C81.6079 82.3688 81.7531 82.9128 82.0084 83.4152C82.3722 84.1316 82.8569 84.762 83.4198 85.3391C83.9264 85.8588 84.5053 86.2735 85.1369 86.6189C85.3443 86.7327 85.5635 86.8358 85.7898 86.9004C86.2295 87.026 86.678 87.1238 87.1236 87.2275C88.1883 87.4757 89.2489 87.4473 90.3078 87.1818C91.1124 86.9804 91.6474 86.4246 92.0468 85.7592C92.3975 85.175 92.6494 84.5339 92.8188 83.8614C92.9065 83.5136 92.964 83.1729 92.9616 82.818C92.961 82.7036 92.9616 82.5887 92.9616 82.4743C92.9616 82.2456 92.9883 82.0127 92.9569 81.7882C92.8668 81.1412 92.7773 80.4918 92.6387 79.8536Z" fill="black"></path><path d="M56.347 60.1549C56.5923 59.5831 56.741 58.9947 56.728 58.3661C56.6989 58.0562 56.6735 57.7457 56.6409 57.4364C56.6 57.0483 56.4228 56.7225 56.1556 56.4469C55.8588 56.1412 55.5643 55.8307 55.2443 55.5505C54.8568 55.2115 54.4658 54.904 53.9325 54.7547C53.3121 54.5811 52.6906 54.4117 52.0625 54.2742C51.5939 54.1717 51.1145 54.1456 50.6506 54.3311C50.5836 54.3577 50.509 54.3666 50.4408 54.3909C50.1766 54.4839 49.8732 54.5254 49.6593 54.6854C49.2872 54.9639 48.9501 55.2969 48.6354 55.6411C47.6762 56.6905 46.9136 57.8725 46.2707 59.1399C45.9958 59.6827 45.744 60.2106 45.6942 60.8309C45.6575 61.2884 45.6006 61.7399 45.6752 62.1985C45.7475 62.6399 45.7878 63.0937 46.0657 63.4658C46.2387 63.6975 46.4461 63.9043 46.6428 64.1182C47.0611 64.5733 47.5114 64.9957 48.0909 65.2333C48.6479 65.462 49.2173 65.6641 49.7885 65.8549C50.1126 65.9633 50.4479 66.0563 50.7851 66.1019C51.3894 66.1843 51.992 66.1559 52.5721 65.9354C53.0793 65.7429 53.5278 65.4792 53.7885 64.9738C53.8543 64.8458 53.9361 64.7238 54.0237 64.6094C54.5772 63.8913 55.0435 63.1163 55.4345 62.3027C55.7728 61.6036 56.0407 60.87 56.347 60.1549Z" fill="black"></path><path d="M38.3901 87.6654C38.332 86.7411 38.2829 85.8162 38.2183 84.8924C38.1727 84.2389 38.1093 83.5865 38.0536 82.9336C38.0109 82.4359 37.9676 81.9382 37.9262 81.4405C37.8432 80.4444 37.7484 79.4496 37.6838 78.4524C37.6246 77.5376 37.5991 76.621 37.5576 75.7049C37.5547 75.6463 37.5393 75.5882 37.531 75.5384C37.2288 75.4727 35.2261 75.4981 35.0217 75.5681C35.0311 75.7725 35.0394 75.9793 35.0507 76.1866C35.0945 77.0185 35.1378 77.851 35.1846 78.6829C35.2208 79.3276 35.2735 79.971 35.299 80.6157C35.3464 81.8125 35.3825 83.01 35.4163 84.2075C35.4234 84.467 35.4234 84.7307 35.3849 84.9866C35.3067 85.5039 35.1242 85.9915 34.8913 86.4584C34.8487 86.5438 34.7728 86.6344 34.6893 86.6747C34.3237 86.8489 33.9486 87.0041 33.5783 87.1683C32.9929 87.4272 32.3702 87.4592 31.7439 87.4841C31.3783 87.4989 31.1087 87.3306 30.8593 87.0978C30.6845 86.9342 30.5245 86.7511 30.3313 86.6125C30.0635 86.4205 29.8905 86.1782 29.804 85.8653C29.785 85.796 29.7524 85.7297 29.7246 85.6627C29.49 85.0968 29.2903 84.5274 29.2417 83.9035C29.1439 82.6581 29.0112 81.4156 28.888 80.1719C28.7718 79.0011 28.651 77.8309 28.5301 76.6607C28.4898 76.2702 28.4412 75.8809 28.3956 75.481C27.7889 75.481 27.2118 75.481 26.6157 75.481C26.608 75.5835 26.5938 75.664 26.5979 75.744C26.6264 76.2743 26.6643 76.804 26.6886 77.3349C26.7217 78.0631 26.7383 78.7925 26.7745 79.5207C26.8361 80.7478 26.9102 81.9749 26.9747 83.202C27.0091 83.8573 27.0381 84.5132 27.0648 85.1685C27.1205 86.5213 27.1726 87.874 27.2266 89.2267C27.2479 89.7676 27.268 90.3092 27.2912 90.8501C27.2929 90.8881 27.3166 90.9248 27.3291 90.9574C27.8611 90.9817 38.1952 90.1859 38.543 90.0414C38.5394 89.9679 38.537 89.9069 38.5335 89.8458C38.4849 89.1194 38.4357 88.3924 38.3901 87.6654Z" fill="black"></path><path d="M31.5266 67.0067C31.8235 67.4073 32.1452 67.7894 32.4356 68.1947C32.5701 68.3826 32.746 68.4969 32.9362 68.6053C33.0263 68.6569 33.1193 68.7043 33.2129 68.7493C33.6253 68.946 34.0276 69.1718 34.4543 69.3306C35.1771 69.6002 35.9391 69.6416 36.704 69.6067C37.2485 69.5818 37.7848 69.4763 38.2825 69.2648C39.0362 68.9443 39.695 68.4785 40.2236 67.8392C40.6359 67.3409 41.0217 66.8219 41.3387 66.2608C41.6752 65.6647 41.9744 65.0467 42.2736 64.4305C42.4265 64.1153 42.5717 63.7894 42.5344 63.3622C42.372 63.3794 42.2393 63.3865 42.1089 63.409C41.9762 63.4321 41.847 63.4777 41.7137 63.502C40.854 63.662 39.9942 63.8208 39.1339 63.9772C38.9088 64.0181 38.6818 64.0495 38.4549 64.0833C38.3097 64.1046 38.2185 64.187 38.1397 64.3102C37.9607 64.5899 37.7783 64.8695 37.5744 65.1314C37.0104 65.8555 36.2377 66.1517 35.343 66.1701C35.1356 66.1743 34.9259 66.1529 34.7197 66.1245C34.6113 66.1097 34.4963 66.0729 34.4063 66.0125C34.0436 65.769 33.6804 65.5237 33.3368 65.2553C33.1519 65.1107 32.9635 64.9412 32.8503 64.7416C32.6672 64.418 32.5422 64.0619 32.3994 63.7165C32.3639 63.6312 32.3419 63.5364 32.336 63.444C32.2608 62.3211 32.4314 61.2807 33.1922 60.3741C33.7669 59.6886 34.456 59.3177 35.3442 59.3165C35.6778 59.3159 36.012 59.3248 36.3438 59.3527C36.9001 59.3995 37.4417 59.515 37.8695 59.9061C38.1515 60.1638 38.4205 60.4399 38.6688 60.7303C38.7832 60.8642 38.8685 60.9359 39.0563 60.8932C39.4213 60.8102 39.7928 60.7569 40.1619 60.6929C40.8255 60.578 41.4898 60.4642 42.1628 60.3481C42.2008 60.0216 42.1178 59.72 42.0455 59.419C42.0301 59.3544 41.9744 59.2952 41.9264 59.2436C41.6432 58.9391 41.3635 58.6304 41.0691 58.3365C40.6573 57.9259 40.249 57.5058 39.7146 57.251C39.304 57.0549 38.8791 56.889 38.4673 56.6958C37.6438 56.3089 36.7799 56.1821 35.8804 56.2722C35.5403 56.306 35.1949 56.3048 34.8743 56.46C34.2848 56.745 33.6935 57.0253 33.0974 57.2949C32.4362 57.5935 31.8946 58.0521 31.4407 58.5972C30.5146 59.7099 30.0851 61.0241 30.0489 62.458C30.0252 63.4019 30.2083 64.3203 30.5597 65.2008C30.8162 65.8377 31.1154 66.4533 31.5266 67.0067Z" fill="black"></path><path d="M79.2564 85.0581C79.1859 83.5187 79.1954 81.9764 79.0911 80.4365C79.0069 79.2005 78.9957 77.9592 78.9501 76.7208C78.9477 76.6515 78.927 76.5827 78.9098 76.485C78.5235 76.5105 78.1508 76.5342 77.7787 76.5608C76.6665 76.6402 75.5538 76.7137 74.4428 76.8026C73.839 76.8506 73.2359 76.9074 72.6327 76.9643L71.6195 76.9353H71.6189C71.594 76.9341 71.5668 76.9365 71.5377 76.9394C71.1757 76.9791 70.8137 77.0242 70.4499 77.0443C69.3051 77.1065 68.1592 77.1575 67.0145 77.215C66.9256 77.2191 66.8379 77.2393 66.7212 77.2564C67.0518 81.3181 67.5205 85.3342 67.8724 89.3739C68.1249 89.3739 68.3405 89.3846 68.5544 89.3721C69.2826 89.3301 70.0114 89.2892 70.739 89.2299C71.7356 89.1488 72.7305 89.0451 73.7271 88.9633C74.3397 88.9135 74.9542 88.8904 75.5674 88.849C76.295 88.8004 77.022 88.7411 77.7496 88.6937C78.2693 88.6599 78.7901 88.6398 79.3097 88.6102C79.5106 88.5989 79.5266 88.5651 79.5094 88.3578C79.4211 87.2586 79.3068 86.1595 79.2564 85.0581ZM77.0463 83.2598C76.9278 84.0857 76.6025 84.7979 75.9774 85.3804C75.6024 85.73 75.2238 86.0772 74.78 86.3213C74.4215 86.5186 74.015 86.6531 73.6133 86.7408C72.9349 86.8889 72.2458 86.8735 71.5685 86.694C71.3084 86.6247 71.0294 86.5879 70.7959 86.4659C69.9528 86.025 69.2607 85.407 68.7535 84.5947C68.6107 84.3654 68.4703 84.1337 68.3494 83.8926C68.2961 83.7853 68.2872 83.6532 68.2706 83.5306C68.2232 83.181 68.1829 82.8302 68.1397 82.48C68.1788 81.7607 68.3074 81.0639 68.5746 80.4039C68.7097 80.0703 68.907 79.7551 69.1149 79.4588C69.4728 78.9498 69.7774 78.3964 70.2603 77.9858C70.377 77.8863 70.5068 77.7802 70.649 77.7358C71.4897 77.4745 72.34 77.2867 73.2288 77.4798C73.9469 77.6356 74.5732 77.9491 75.1058 78.4646C75.6261 78.9682 76.0693 79.5258 76.4206 80.1562C76.7329 80.7161 76.9059 81.3246 77.0114 81.9533C77.0842 82.3864 77.1091 82.8225 77.0463 83.2598Z" fill="black"></path><path d="M62.0498 78.195C61.8187 77.8111 61.5562 77.4395 61.2048 77.1676C60.5726 76.6788 59.922 76.2083 59.2489 75.7776C58.708 75.4315 58.1208 75.1572 57.5561 74.8473C56.6318 74.3407 55.6619 73.9923 54.5942 73.9651C54.4123 73.9603 54.2315 73.9242 54.0336 73.9011C54.0336 73.9787 54.0301 74.0184 54.0342 74.0575C54.1172 74.8746 54.2043 75.6916 54.2843 76.5093C54.3737 77.42 54.4585 78.3319 54.5444 79.2432C54.6019 79.854 54.6587 80.4643 54.715 81.0752C54.7891 81.8828 54.8691 82.6904 54.9337 83.4986C54.9858 84.1509 55.0154 84.8057 55.0634 85.4586C55.1233 86.2668 55.192 87.075 55.2566 87.8826C55.2951 88.3685 55.333 88.8537 55.3745 89.3811C55.6097 89.31 55.8147 89.2406 56.0227 89.1867C56.8777 88.9639 57.7102 88.6736 58.535 88.3596C58.6606 88.3116 58.785 88.2606 58.9118 88.2156C59.6205 87.9638 60.2906 87.6361 60.8867 87.1745C61.4306 86.7533 61.9336 86.2875 62.3134 85.7051C62.5629 85.3229 62.8194 84.9455 63.0659 84.5616C63.121 84.4756 63.1506 84.3725 63.1838 84.2748C63.2235 84.1569 63.2567 84.0366 63.2887 83.9163C63.4048 83.4767 63.5731 83.0554 63.5861 82.5849C63.6087 81.7815 63.3639 81.0438 63.0861 80.3168C62.8046 79.5809 62.4574 78.8722 62.0498 78.195ZM61.3915 82.2555C61.2404 82.4564 61.0152 82.611 60.8013 82.7526C60.5341 82.9292 60.2444 83.0726 59.9617 83.2248C59.8995 83.2586 59.8255 83.2776 59.7549 83.2882C59.2412 83.3641 58.7263 83.4281 58.2138 83.511C57.8435 83.5709 57.5253 83.4156 57.2468 83.2325C56.8587 82.9778 56.5163 82.6531 56.1572 82.3556C55.7294 82.0013 55.6103 81.5184 55.5925 81.0047C55.6204 80.6498 55.6613 80.315 55.8224 80.0004C55.9735 79.7053 56.0689 79.3794 56.2413 79.0992C56.5092 78.6637 56.8303 78.2679 57.3553 78.1079C57.6136 78.0291 57.8749 77.9521 58.1202 77.8419C58.5219 77.6606 58.9242 77.6552 59.3384 77.7684C59.88 77.9165 60.4209 78.0623 60.8772 78.416C61.126 78.6086 61.3583 78.8053 61.446 79.1294C61.4803 79.2568 61.5621 79.3717 61.6184 79.4938C62.0604 80.456 62.042 81.3892 61.3915 82.2555Z" fill="black"></path><path d="M64.1471 63.3258C64.0766 62.6219 63.9872 61.9198 63.9161 61.2165C63.845 60.5096 63.7247 59.8063 63.7022 59.0852C65.5538 58.7794 67.3828 58.5869 69.1983 58.2373C69.0229 57.1968 68.8529 56.189 68.6834 55.1823C68.6212 55.1912 68.5969 55.1876 68.5821 55.1983C68.1573 55.4963 67.7425 55.8092 67.3076 56.0912C66.8128 56.4124 66.3288 56.7578 65.7428 56.9113C65.2996 57.0274 64.8659 57.1785 64.4203 57.2839C63.9723 57.39 63.5167 57.4522 63.0688 57.2626C62.8395 57.1654 62.6036 57.0807 62.3803 56.9717C62.0757 56.823 61.7463 56.7045 61.6141 56.3353C61.4672 55.9265 61.2432 55.5437 61.1935 55.1029C61.1775 54.9625 61.1822 54.8179 61.1964 54.6769C61.2077 54.5643 61.245 54.4541 61.2752 54.3439C61.3825 53.9499 61.5128 53.5606 61.8079 53.2667C61.9969 53.0783 62.2132 52.9071 62.4431 52.772C62.958 52.4704 63.4912 52.2091 64.1217 52.3074C64.4908 52.3649 64.8605 52.423 65.2314 52.4698C66.2227 52.596 67.1607 52.8762 68.0151 53.4083C68.1685 53.5037 68.3309 53.5849 68.5406 53.7016C68.4008 52.7483 68.2698 51.8547 68.1306 50.9044C67.8823 50.9269 67.6667 50.9429 67.4516 50.966C66.8614 51.0282 66.2707 51.1491 65.6811 51.1455C63.6565 51.1337 61.6355 51.2089 59.615 51.3138C59.5362 51.3179 59.4586 51.3369 59.3721 51.3505C59.3851 51.5514 59.3893 51.7268 59.4094 51.9004C59.5089 52.766 59.6138 53.6317 59.7145 54.4974C59.8028 55.2605 59.8887 56.0243 59.9735 56.788C60.0872 57.8184 60.2768 58.8375 60.3248 59.8786C60.3657 60.7596 60.515 61.6348 60.611 62.5135C60.6572 62.9371 60.6851 63.3631 60.7337 63.7868C60.851 64.8095 60.973 65.8315 61.0987 66.853C61.1526 67.2945 61.2201 67.7347 61.2806 68.1702C61.5454 68.2051 64.2111 67.7169 64.5826 67.5664C64.5761 66.8655 64.4061 66.1746 64.3444 65.4725C64.2793 64.7561 64.2188 64.0404 64.1471 63.3258Z" fill="black"></path><path d="M23.9992 81.0077C23.5435 80.4721 22.9955 80.0544 22.3342 79.7895C21.9627 79.6408 21.5847 79.5288 21.1859 79.5294C20.3232 79.5306 19.4813 79.6829 18.6944 80.0354C17.5858 80.532 16.6899 81.2898 16.1099 82.3711C15.8284 82.8955 15.6281 83.4566 15.6815 84.0734C15.7105 84.4052 15.7046 84.7424 15.7626 85.0688C15.8444 85.528 15.9457 85.9837 16.1727 86.4038C16.7421 87.4602 17.6676 88.0806 18.74 88.5214C18.8905 88.5836 19.0629 88.6032 19.2271 88.6198C20.0898 88.7063 20.9311 88.6115 21.7429 88.3004C22.1405 88.1481 22.5333 87.9947 22.8361 87.6664C23.2887 87.1758 23.7219 86.671 24.0323 86.0779C24.2581 85.6453 24.4637 85.2004 24.5147 84.7032C24.5656 84.2079 24.626 83.7137 24.6823 83.2184C24.6729 82.6727 24.7096 82.1317 24.3843 81.6459C24.2462 81.4397 24.158 81.195 23.9992 81.0077ZM20.8506 84.8656C20.8103 84.8751 20.7706 84.8863 20.7303 84.8976C20.4885 84.9693 20.2397 85.0516 20.0258 84.8454C19.7988 84.6262 19.6004 84.3815 19.6276 84.0379C19.6365 83.9276 19.6697 83.8121 19.7206 83.7137C19.8356 83.4933 19.96 83.2771 20.0963 83.0691C20.3203 82.726 20.8132 82.6052 21.1936 82.7871C21.2126 82.7959 21.2321 82.8025 21.2511 82.8114C21.5977 82.9678 21.8009 83.2137 21.753 83.5763C21.7909 84.0402 21.3785 84.7418 20.8506 84.8656Z" fill="black"></path><path d="M50.8871 76.6058C47.1004 76.8937 43.3432 77.2226 39.5435 77.5597C39.7028 78.5409 39.688 79.5061 39.8593 80.4861C41.2979 80.4245 42.7081 80.3647 44.1105 80.3048C44.2622 83.2473 44.4121 86.1512 44.5644 89.0977C45.5284 89.0349 46.448 88.9757 47.4221 88.9123C47.4014 88.6824 47.3765 88.4774 47.3658 88.2724C47.3261 87.4831 47.2965 86.6939 47.2521 85.9053C47.2041 85.055 47.1436 84.2053 47.0897 83.3557C47.0542 82.7963 47.0222 82.2364 46.986 81.6771C46.9665 81.3767 46.9374 81.0769 46.9202 80.7765C46.9031 80.4796 46.8959 80.1822 46.8829 79.8516C48.3867 79.7781 49.8478 79.7064 51.3386 79.6329C51.1976 78.6144 51.0856 77.6207 50.8871 76.6058Z" fill="black"></path><path d="M102.566 59.8448C102.6 59.8815 102.593 59.9639 102.594 60.0255C102.616 61.1092 102.627 62.1935 102.66 63.2766C102.688 64.182 102.74 65.0873 102.786 65.9921C102.794 66.1545 102.827 66.3156 102.849 66.4797C105.442 66.5129 108.013 66.5455 110.625 66.5787C110.706 65.7166 110.867 64.8385 110.917 63.9071C110.539 64.2104 110.183 64.4362 109.787 64.5985C109.364 64.7721 108.942 64.9457 108.528 65.1365C108.291 65.2455 108.049 65.2746 107.797 65.2586C107.266 65.2254 106.735 65.1952 106.205 65.1513C105.775 65.1158 105.362 65.0121 105.015 64.7372C104.738 64.5179 104.463 64.2946 104.2 64.0587C103.851 63.7465 103.706 63.3418 103.751 62.8814C103.782 62.5615 103.851 62.2451 103.905 61.9275C104 61.3729 104.398 61.0796 104.859 60.8609C105.397 60.6062 105.977 60.6506 106.55 60.6654C106.812 60.6725 107.062 60.7182 107.309 60.8242C107.709 60.9966 108.125 61.1305 108.531 61.2893C109.162 61.5364 109.787 61.7971 110.286 62.2794C110.332 62.3239 110.403 62.3422 110.486 62.3843C110.475 62.206 110.46 62.062 110.457 61.918C110.444 61.2093 110.435 60.5007 110.419 59.7921C110.417 59.6925 110.418 59.5604 110.36 59.5023C110.259 59.4034 110.268 59.2985 110.268 59.1877C110.267 58.687 110.276 58.1869 110.268 57.6869C110.262 57.3906 110.232 57.0955 110.207 56.7288C110.12 56.833 110.078 56.8739 110.047 56.9219C109.742 57.4001 109.373 57.816 108.888 58.1206C108.395 58.4299 107.918 58.7741 107.328 58.8808C107.153 58.9122 106.975 58.9163 106.801 58.9507C106.022 59.1041 105.263 59.0182 104.527 58.7445C104.215 58.6278 103.924 58.4459 103.815 58.0957C103.703 57.7384 103.607 57.3764 103.51 57.0149C103.438 56.743 103.47 56.4846 103.597 56.2269C103.883 55.6456 104.295 55.1699 104.788 54.7593C104.866 54.6941 104.96 54.6313 105.057 54.6076C105.49 54.5015 105.925 54.3445 106.364 54.3255C107.401 54.2793 108.423 54.3919 109.384 54.8369C109.588 54.9311 109.8 55.0081 110.037 55.1041C110.131 54.4476 110.188 53.8231 110.184 53.1689C107.526 53.2169 104.912 53.3828 102.294 53.5553C102.284 53.6613 102.273 53.7224 102.273 53.7834C102.277 55.4827 102.269 57.1814 102.295 58.8802C102.299 59.2072 102.307 59.5687 102.566 59.8448Z" fill="black"></path><path d="M128.542 85.8622C128.537 85.8278 128.533 85.7934 128.529 85.7579C128.49 85.5766 128.437 85.3982 128.374 85.2246C128.325 85.0913 128.269 84.9592 128.205 84.8306C128.108 84.7459 128.029 84.6783 127.953 84.6102C127.634 84.3281 127.328 84.0301 126.993 83.7676C126.431 83.3268 125.778 83.1958 125.083 83.3114C124.818 83.3552 124.56 83.4512 124.309 83.5508C124.081 83.6414 123.843 83.7386 123.652 83.8867C123.291 84.1664 123.042 84.542 122.954 84.9965C122.9 85.2815 122.884 85.5748 122.868 85.8651C122.857 86.0512 122.858 86.242 122.889 86.4244C122.947 86.7728 123.023 87.1183 123.108 87.4608C123.134 87.5633 123.191 87.6847 123.272 87.7422C123.577 87.9573 123.881 88.1848 124.217 88.3412C124.639 88.5373 125.08 88.7252 125.533 88.8117C126.041 88.9083 126.558 88.9823 127.08 88.7015C128.051 88.1795 128.714 86.9536 128.542 85.8622Z" fill="black"></path><path d="M81.1077 60.399C80.3528 60.5459 79.5938 60.7207 78.8253 60.8363C78.0515 60.953 77.2824 61.1207 76.492 61.1805C76.4689 60.988 76.4499 60.8333 76.4328 60.6793C76.3895 60.2858 76.3469 59.8924 76.3054 59.499C76.2917 59.3716 76.2775 59.2394 76.4464 59.1986C76.719 59.1322 76.9897 59.0392 77.2664 59.0096C78.1054 58.9195 78.9468 58.8549 79.787 58.7791C80.6787 58.6985 81.571 58.6167 82.4628 58.5344C82.8052 58.503 83.1471 58.4603 83.4902 58.4378C84.0827 58.3987 84.6764 58.3797 85.2683 58.3341C85.5746 58.3104 85.878 58.2476 86.2075 58.199C86.1038 57.0501 86.0042 55.9445 85.9023 54.811C85.7767 54.811 85.6724 54.7956 85.5746 54.8134C84.9294 54.9325 84.2865 55.0616 83.6419 55.1813C83.172 55.269 82.7021 55.3614 82.2287 55.4266C81.3518 55.5475 80.4719 55.6476 79.5938 55.762C79.0463 55.8331 78.5012 55.919 77.9537 55.9889C77.1379 56.0938 76.3184 56.1762 75.5043 56.2952C74.5853 56.4298 73.6645 56.5251 72.7349 56.5311C72.425 56.5334 72.1151 56.5613 71.7738 56.5791C71.7738 56.713 71.7667 56.8155 71.775 56.9162C71.8307 57.6106 71.8834 58.3056 71.9492 58.9995C71.9913 59.4445 72.0677 59.8865 72.1033 60.332C72.1459 60.8718 72.1459 61.4157 72.1927 61.9549C72.2858 63.0226 72.3936 64.0892 72.5038 65.1557C72.5542 65.6421 72.6105 66.1286 72.6869 66.6115C72.8078 67.3717 72.9482 68.1289 73.0815 68.8867C73.0951 68.965 73.12 69.042 73.1467 69.1486C74.4603 69.0396 75.7431 68.85 77.0632 68.6681C77.0164 68.03 76.969 67.4191 76.9263 66.8082C76.8837 66.1908 76.7486 65.5781 76.8031 64.9305C77.302 64.8689 77.7748 64.799 78.25 64.7534C79.2353 64.6592 80.2225 64.5792 81.2084 64.4897C81.318 64.4796 81.4253 64.4453 81.5278 64.4233C81.4241 62.6061 81.2226 60.6407 81.1077 60.399Z" fill="black"></path></svg>