<svg xmlns="http://www.w3.org/2000/svg" width="62" height="62" viewBox="0 0 62 62" fill="none"><path d="M3.81127 32.6129L12.1832 37.2124L7.77991 36.3639C9.81231 37.6471 12.6395 39.0088 16.4543 40.4584L25.23 40.2756L20.5761 41.8796C22.8705 42.5339 25.5084 43.0217 28.2735 43.2685L33.3419 40.1996L30.5451 43.4267C33.3989 43.5469 36.3159 43.4267 39.0747 42.9837C41.9682 42.5237 44.691 41.7031 46.9328 40.4141L47.5226 43.383C48.8627 41.7239 49.6733 39.9275 50.0605 37.923L51.5361 40.702C52.5397 38.7316 52.7111 36.9795 52.1531 34.8649C55.0087 33.5064 57.5618 31.6556 60.1346 29.837L59.1665 28.4766C44.3575 40.585 26.2487 39.6365 13.8354 34.8263L14.4985 33.29C25.6476 37.5421 37.4548 37.7066 48.9773 32.4484C47.8383 31.2968 46.5791 30.316 45.2757 29.5441L41.1121 33.0875L43.795 28.7468C42.8522 28.3102 41.9157 27.9811 40.9982 27.7723L39.5556 31.8346L39.6821 27.5572C38.7709 27.456 37.8977 27.4939 37.0815 27.6774C32.1523 28.7594 27.1536 29.7339 20.6932 28.2722L22.5598 32.189L18.2571 27.6205C17.1687 27.2661 15.9602 26.9561 14.9604 26.8042L17.8521 30.2021L12.0118 26.5891C11.2778 26.5891 10.5501 26.6334 9.85407 26.7093C7.37115 27.0029 5.18561 27.7078 4.04856 29.1992C3.47338 29.9389 3.24749 30.9494 3.54045 31.9346C3.61638 32.175 3.71446 32.4187 3.81127 32.6129Z" fill="#E6BF5F"></path></svg>