<svg xmlns="http://www.w3.org/2000/svg" width="238" height="206" viewBox="0 0 238 206" fill="none"><path d="M86.8818 25.2387H101.995L80.0207 90.1412H64.9077L51.2782 43.3187L37.4632 90.1412H22.4429L0.561523 25.2387H16.3236L30.4167 74.7501L44.4171 25.2387H58.7883L72.9742 74.7501L86.8818 25.2387ZM123.986 39.7954C129.24 39.7954 133.876 40.8462 137.893 42.9478C141.973 45.0495 145.125 48.0164 147.351 51.8488C149.576 55.6811 150.688 60.1316 150.688 65.2001C150.688 70.2069 149.576 74.6574 147.351 78.5515C145.125 82.3838 141.973 85.3817 137.893 87.5451C133.876 89.6467 129.24 90.6975 123.986 90.6975C118.67 90.6975 113.972 89.6467 109.893 87.5451C105.875 85.3817 102.753 82.3838 100.528 78.5515C98.3028 74.6574 97.1902 70.2069 97.1902 65.2001C97.1902 60.1316 98.3028 55.6811 100.528 51.8488C102.753 48.0164 105.875 45.0495 109.893 42.9478C113.972 40.8462 118.67 39.7954 123.986 39.7954ZM123.986 51.6633C120.277 51.6633 117.248 52.9305 114.899 55.4648C112.612 57.999 111.469 61.306 111.469 65.3856C111.469 69.4652 112.612 72.7721 114.899 75.3064C117.248 77.8407 120.277 79.1078 123.986 79.1078C127.633 79.1078 130.6 77.8407 132.887 75.3064C135.235 72.7721 136.41 69.4652 136.41 65.3856C136.41 61.306 135.235 57.999 132.887 55.4648C130.6 52.9305 127.633 51.6633 123.986 51.6633ZM180.804 39.7954C186.058 39.7954 190.694 40.8462 194.712 42.9478C198.792 45.0495 201.944 48.0164 204.169 51.8488C206.394 55.6811 207.507 60.1316 207.507 65.2001C207.507 70.2069 206.394 74.6574 204.169 78.5515C201.944 82.3838 198.792 85.3817 194.712 87.5451C190.694 89.6467 186.058 90.6975 180.804 90.6975C175.488 90.6975 170.791 89.6467 166.711 87.5451C162.693 85.3817 159.572 82.3838 157.347 78.5515C155.121 74.6574 154.009 70.2069 154.009 65.2001C154.009 60.1316 155.121 55.6811 157.347 51.8488C159.572 48.0164 162.693 45.0495 166.711 42.9478C170.791 40.8462 175.488 39.7954 180.804 39.7954ZM180.804 51.6633C177.096 51.6633 174.067 52.9305 171.718 55.4648C169.431 57.999 168.287 61.306 168.287 65.3856C168.287 69.4652 169.431 72.7721 171.718 75.3064C174.067 77.8407 177.096 79.1078 180.804 79.1078C184.451 79.1078 187.418 77.8407 189.705 75.3064C192.054 72.7721 193.228 69.4652 193.228 65.3856C193.228 61.306 192.054 57.999 189.705 55.4648C187.418 52.9305 184.451 51.6633 180.804 51.6633ZM215.556 21.3446H229.835V90.1412H215.556V21.3446Z" fill="white"></path><path d="M129.874 182.859L124.775 170.249H94.7341L89.6346 182.859H74.5216L102.708 117.956H117.821L145.543 182.859H129.874ZM99.5554 158.474H120.046L109.847 133.255L99.5554 158.474ZM150.16 132.977H164.438V182.859H150.16V132.977ZM157.206 110.817C159.493 110.817 161.348 111.559 162.769 113.042C164.253 114.526 164.995 116.442 164.995 118.791C164.995 121.14 164.253 123.056 162.769 124.539C161.348 126.023 159.493 126.765 157.206 126.765C154.981 126.765 153.127 126.023 151.643 124.539C150.222 122.994 149.511 121.078 149.511 118.791C149.511 116.442 150.222 114.526 151.643 113.042C153.127 111.559 154.981 110.817 157.206 110.817ZM225.517 114.062V182.859H211.331V175.534C209.539 178.13 207.313 180.108 204.655 181.468C201.998 182.766 198.969 183.415 195.569 183.415C190.871 183.415 186.73 182.364 183.145 180.263C179.622 178.099 176.871 175.071 174.893 171.176C172.977 167.282 172.019 162.801 172.019 157.732C172.019 152.726 172.977 148.306 174.893 144.474C176.809 140.641 179.529 137.674 183.052 135.573C186.575 133.471 190.624 132.42 195.198 132.42C202.245 132.42 207.622 135.047 211.331 140.301V114.062H225.517ZM198.907 171.918C202.554 171.918 205.521 170.651 207.808 168.117C210.157 165.521 211.331 162.183 211.331 158.103C211.331 154.024 210.157 150.717 207.808 148.182C205.521 145.586 202.554 144.288 198.907 144.288C195.198 144.288 192.169 145.586 189.821 148.182C187.534 150.717 186.359 154.024 186.297 158.103C186.359 162.183 187.534 165.521 189.821 168.117C192.169 170.651 195.198 171.918 198.907 171.918Z" fill="white"></path><path d="M39.9492 122.546C39.9492 118.953 42.8621 116.04 46.4553 116.04H50.5778C51.8942 116.04 52.9614 117.107 52.9614 118.424V132.388C52.9614 138.969 47.627 144.303 41.0466 144.303C40.4405 144.303 39.9492 143.812 39.9492 143.206V122.546Z" fill="white"></path><path d="M52.9614 179.072C52.9614 182.665 50.0485 185.578 46.4553 185.578H42.3329C41.0164 185.578 39.9492 184.511 39.9492 183.194V169.23C39.9492 162.649 45.2837 157.315 51.864 157.315C52.4701 157.315 52.9614 157.806 52.9614 158.412V179.072Z" fill="white"></path><path d="M74.718 144.302C78.3112 144.302 81.2241 147.215 81.2241 150.808C81.2241 154.402 78.3112 157.314 74.718 157.314L52.9612 157.314L52.9612 144.302L74.718 144.302Z" fill="white"></path><path d="M18.1921 144.302C14.5989 144.302 11.686 147.215 11.686 150.808C11.686 154.402 14.5989 157.314 18.1921 157.314L39.949 157.314L39.949 144.302L18.1921 144.302Z" fill="white"></path></svg>