<svg xmlns="http://www.w3.org/2000/svg" width="62" height="62" viewBox="0 0 62 62" fill="none"><path d="M33.3509 17.1812L35.3645 20.4387L33.7323 21.4445C23.4352 27.8068 16.2695 35.039 11.0908 44.4216C14.4261 46.7684 18.4647 47.9794 22.7499 47.8727C28.4355 47.7312 33.9958 45.3436 38.8282 40.9709C43.0799 37.1239 44.9095 33.1111 46.8471 28.8621C47.9103 26.5306 49.011 24.115 50.5853 21.5823C53.4761 16.9334 59.4588 12.8491 59.5182 12.808L62.81 10.5831L59.0183 9.39369C58.7255 9.30285 51.7457 7.14521 41.4983 6.4608C30.667 5.73639 21.9288 7.44096 15.5339 11.5288C10.3474 14.8466 6.59035 19.9868 5.06321 25.6862C4.7746 26.7608 4.56699 27.8555 4.44211 28.9612C3.88052 33.979 5.22699 38.6397 8.14386 41.8456C13.6065 32.222 21.091 24.7568 31.7231 18.1845L33.3509 17.1812Z" fill="#E6BF5F"></path><path d="M8.44716 49.7846C9.26774 47.9196 10.1482 46.1362 11.0939 44.4237C10.1658 43.7703 9.29812 43.0349 8.50145 42.2263C8.37989 42.1021 8.26041 41.9747 8.14356 41.8467C6.96815 43.9225 5.89998 46.0572 4.94326 48.2425L4.17129 49.9954L7.67665 51.5367L8.44716 49.7846Z" fill="#E6BF5F"></path></svg>