<svg xmlns="http://www.w3.org/2000/svg" width="45" height="39" viewBox="0 0 45 39" fill="none"><path d="M9.05861 4.72155H11.4763L13.9869 13.0313L16.4976 4.72155H19.2703L15.2888 16.8438H12.8626L10.2674 8.70311L7.67225 16.8438H5.24612L1.26456 4.72155H4.03728L6.54794 13.0313L9.05861 4.72155ZM21.5193 12.6086C21.5193 13.2426 21.7222 13.7752 22.1364 14.2063C22.5421 14.6374 23.0324 14.8487 23.5988 14.8487C24.1567 14.8487 24.647 14.6374 25.0613 14.2063C25.467 13.7752 25.6784 13.2426 25.6784 12.6086C25.6784 11.9746 25.467 11.442 25.0613 11.0024C24.647 10.5713 24.1567 10.3515 23.5988 10.3515C23.0324 10.3515 22.5421 10.5713 22.1364 11.0024C21.7222 11.442 21.5193 11.9746 21.5193 12.6086ZM28.096 12.6001C28.096 13.7836 27.648 14.8149 26.7519 15.6941C25.8559 16.5732 24.8077 17.0128 23.5988 17.0128C22.3815 17.0128 21.3333 16.5732 20.4372 15.6941C19.5412 14.8149 19.0932 13.7836 19.0932 12.6001C19.0932 11.4251 19.5412 10.3938 20.4372 9.51464C21.3333 8.63548 22.3815 8.19591 23.5988 8.19591C24.8077 8.19591 25.8559 8.63548 26.7519 9.51464C27.648 10.3938 28.096 11.4251 28.096 12.6001ZM31.3848 12.6086C31.3848 13.2426 31.5876 13.7752 32.0019 14.2063C32.4076 14.6374 32.8979 14.8487 33.4643 14.8487C34.0222 14.8487 34.5125 14.6374 34.9267 14.2063C35.3325 13.7752 35.5438 13.2426 35.5438 12.6086C35.5438 11.9746 35.3325 11.442 34.9267 11.0024C34.5125 10.5713 34.0222 10.3515 33.4643 10.3515C32.8979 10.3515 32.4076 10.5713 32.0019 11.0024C31.5876 11.442 31.3848 11.9746 31.3848 12.6086ZM37.9615 12.6001C37.9615 13.7836 37.5135 14.8149 36.6174 15.6941C35.7214 16.5732 34.6731 17.0128 33.4643 17.0128C32.247 17.0128 31.1988 16.5732 30.3027 15.6941C29.4067 14.8149 28.9586 13.7836 28.9586 12.6001C28.9586 11.4251 29.4067 10.3938 30.3027 9.51464C31.1988 8.63548 32.247 8.19591 33.4643 8.19591C34.6731 8.19591 35.7214 8.63548 36.6174 9.51464C37.5135 10.3938 37.9615 11.4251 37.9615 12.6001ZM41.7743 4.72155V16.8438H39.4327V4.72155H41.7743Z" fill="#252121"></path><path d="M25.3211 29.0504L23.8502 25.0688L22.3708 29.0504H25.3211ZM26.1833 31.299H21.5086L20.4688 34.1562H17.6961L22.4638 22.0341H25.2281L29.9958 34.1562H27.2231L26.1833 31.299ZM33.293 25.669V34.1562H30.9514V25.669H33.293ZM33.462 23.2513C33.462 23.6402 33.3352 23.953 33.0901 24.1897C32.8365 24.4264 32.4983 24.5447 32.0757 24.5447C31.6784 24.5447 31.3656 24.4264 31.1289 24.1897C30.8922 23.953 30.7823 23.6402 30.7823 23.2513C30.7823 22.8625 30.9006 22.5413 31.1373 22.3046C31.374 22.0679 31.6868 21.9495 32.0757 21.9495C32.4983 21.9495 32.8365 22.0679 33.0901 22.3046C33.3352 22.5413 33.462 22.8625 33.462 23.2513ZM38.8387 25.5C39.3206 25.5 39.7686 25.6098 40.1913 25.8127C40.614 26.0156 40.9098 26.21 41.0874 26.4045L41.3494 26.7172V22.0425H43.6825V34.1647H41.3494V33.1249C41.324 33.1587 41.2902 33.201 41.2395 33.2517C41.1888 33.3025 41.0874 33.4039 40.9352 33.5392C40.783 33.6744 40.614 33.8012 40.4364 33.9111C40.2505 34.021 40.0222 34.114 39.7348 34.1985C39.4474 34.2831 39.1431 34.3253 38.8387 34.3253C37.7398 34.3253 36.7846 33.9026 35.973 33.0489C35.1615 32.1951 34.7642 31.1468 34.7642 29.9126C34.7642 28.6784 35.1615 27.6387 35.973 26.7849C36.7846 25.9311 37.7398 25.5 38.8387 25.5ZM39.2614 32.2627C39.8362 32.2627 40.3265 32.0429 40.7323 31.6033C41.1381 31.1637 41.341 30.5974 41.341 29.9211C41.341 29.2364 41.1381 28.6784 40.7323 28.2389C40.3265 27.7993 39.8362 27.5795 39.2614 27.5795C38.6866 27.5795 38.1963 27.7993 37.7905 28.2389C37.3848 28.6784 37.1819 29.2364 37.1819 29.9211C37.1819 30.5974 37.3848 31.1637 37.7905 31.6033C38.1963 32.0429 38.6866 32.2627 39.2614 32.2627Z" fill="#252121"></path><path d="M8.27246 23.6995C8.27246 23.0285 8.81636 22.4846 9.4873 22.4846H10.2571C10.5029 22.4846 10.7021 22.6839 10.7021 22.9297V25.5372C10.7021 26.7659 9.70608 27.762 8.47737 27.762C8.3642 27.762 8.27246 27.6703 8.27246 27.5571V23.6995Z" fill="#252121"></path><path d="M10.7021 34.2542C10.7021 34.9251 10.1582 35.469 9.48731 35.469H8.71755C8.47174 35.469 8.27247 35.2697 8.27247 35.0239V32.4164C8.27247 31.1877 9.26853 30.1916 10.4972 30.1916C10.6104 30.1916 10.7021 30.2834 10.7021 30.3965V34.2542Z" fill="#252121"></path><path d="M14.7647 27.762C15.4356 27.762 15.9795 28.3059 15.9795 28.9768C15.9795 29.6477 15.4356 30.1916 14.7647 30.1916L10.7021 30.1916L10.7021 27.762L14.7647 27.762Z" fill="#252121"></path><path d="M4.20996 27.762C3.53902 27.762 2.99512 28.3059 2.99512 28.9768C2.99512 29.6477 3.53902 30.1916 4.20996 30.1916L8.27248 30.1916L8.27248 27.762L4.20996 27.762Z" fill="#252121"></path></svg>