<svg xmlns="http://www.w3.org/2000/svg" width="62" height="62" viewBox="0 0 62 62" fill="none"><path d="M51.4237 22.0648C51.4237 23.7575 50.7513 25.3808 49.5544 26.5777C48.3575 27.7747 46.7341 28.4471 45.0414 28.4471C42.2843 28.4471 39.9356 26.6856 39.0676 24.2603C37.9443 25.2559 36.4636 25.8942 34.8297 25.8942C33.4001 25.8942 32.0726 25.4091 31.0004 24.6177C29.9281 25.4091 28.6261 25.8942 27.171 25.8942C25.5371 25.8942 24.0564 25.2559 22.9331 24.2603C22.0652 26.6856 19.7165 28.4471 16.9593 28.4471C15.2666 28.4471 13.6433 27.7747 12.4464 26.5777C11.2494 25.3808 10.577 23.7575 10.577 22.0648C10.577 18.8992 12.9002 16.2697 15.9381 15.7846C15.785 15.3506 15.6829 14.8911 15.6829 14.406C15.6829 13.3904 16.0863 12.4164 16.8045 11.6983C17.5226 10.9801 18.4966 10.5767 19.5122 10.5767C20.0228 10.5767 20.5079 10.6788 20.9419 10.8575C21.3759 9.22361 22.8566 8.02374 24.6181 8.02374C25.2563 8.02374 25.8945 8.20245 26.3541 8.45774C27.171 6.74728 28.9325 5.47083 31.0004 5.47083C33.0682 5.47083 34.8297 6.74728 35.6467 8.45774C36.1062 8.20245 36.7444 8.02374 37.3827 8.02374C39.1442 8.02374 40.6249 9.22361 41.0588 10.8575C41.4928 10.6788 41.9779 10.5767 42.4885 10.5767C43.5041 10.5767 44.4781 10.9801 45.1963 11.6983C45.9144 12.4164 46.3179 13.3904 46.3179 14.406C46.3179 14.8911 46.2157 15.3506 46.0626 15.7846C49.1005 16.2697 51.4237 18.8992 51.4237 22.0648ZM25.8945 31C25.2174 31 24.5681 31.269 24.0893 31.7477C23.6106 32.2265 23.3416 32.8758 23.3416 33.5529C23.3416 34.23 23.6106 34.8793 24.0893 35.3581C24.5681 35.8369 25.2174 36.1058 25.8945 36.1058C26.5716 36.1058 27.2209 35.8369 27.6997 35.3581C28.1785 34.8793 28.4474 34.23 28.4474 33.5529C28.4474 32.8758 28.1785 32.2265 27.6997 31.7477C27.2209 31.269 26.5716 31 25.8945 31ZM36.1062 31C35.4291 31 34.7798 31.269 34.301 31.7477C33.8222 32.2265 33.5533 32.8758 33.5533 33.5529C33.5533 34.23 33.8222 34.8793 34.301 35.3581C34.7798 35.8369 35.4291 36.1058 36.1062 36.1058C36.7833 36.1058 37.4326 35.8369 37.9114 35.3581C38.3901 34.8793 38.6591 34.23 38.6591 33.5529C38.6591 32.8758 38.3901 32.2265 37.9114 31.7477C37.4326 31.269 36.7833 31 36.1062 31ZM52.0109 27.5791C50.377 29.6469 47.8751 31 45.0414 31C43.8926 31 42.7948 30.7447 41.7481 30.3107C41.7226 36.8206 40.778 44.6836 37.255 48.7428C35.9275 50.249 34.3192 51.0659 32.2768 51.3212V46.3175H29.7239V51.3212C27.6816 51.0659 26.0732 50.2745 24.7457 48.7428C21.1972 44.6581 20.2526 36.8462 20.2271 30.3362C19.2059 30.7447 18.1081 31 16.9593 31C14.1256 31 11.6237 29.6469 9.98985 27.5791C7.71776 29.8512 5.47119 31 5.47119 31C5.47119 31 8.02411 36.1058 13.1299 36.1058C14.049 36.1058 14.7638 36.0037 15.3765 35.8761C16.2445 45.6282 19.7165 56.5292 31.0004 56.5292C42.2843 56.5292 45.7562 45.6282 46.6242 35.8761C47.2369 36.0037 47.9517 36.1058 48.8708 36.1058C53.9766 36.1058 56.5295 31 56.5295 31C56.5295 31 54.283 29.8512 52.0109 27.5791Z" fill="#E6BF5F"></path></svg>