<svg xmlns="http://www.w3.org/2000/svg" width="23" height="23" viewBox="0 0 23 23" fill="none"><path d="M7.78991 2.66663H15.21C18.0367 2.66663 20.3334 4.96333 20.3334 7.79004V15.2101C20.3334 16.569 19.7936 17.8721 18.8328 18.8329C17.872 19.7938 16.5688 20.3336 15.21 20.3336H7.78991C4.96321 20.3336 2.6665 18.0369 2.6665 15.2101V7.79004C2.6665 6.43122 3.20629 5.12806 4.16712 4.16724C5.12794 3.20641 6.4311 2.66663 7.78991 2.66663ZM7.61324 4.43332C6.76984 4.43332 5.96099 4.76836 5.36461 5.36473C4.76824 5.96111 4.4332 6.76997 4.4332 7.61337V15.3868C4.4332 17.1447 5.85538 18.5669 7.61324 18.5669H15.3867C16.2301 18.5669 17.039 18.2318 17.6353 17.6355C18.2317 17.0391 18.5667 16.2302 18.5667 15.3868V7.61337C18.5667 5.85551 17.1446 4.43332 15.3867 4.43332H7.61324ZM16.1375 5.75834C16.4304 5.75834 16.7112 5.87467 16.9183 6.08175C17.1254 6.28882 17.2417 6.56967 17.2417 6.86252C17.2417 7.15537 17.1254 7.43622 16.9183 7.6433C16.7112 7.85037 16.4304 7.96671 16.1375 7.96671C15.8447 7.96671 15.5638 7.85037 15.3568 7.6433C15.1497 7.43622 15.0334 7.15537 15.0334 6.86252C15.0334 6.56967 15.1497 6.28882 15.3568 6.08175C15.5638 5.87467 15.8447 5.75834 16.1375 5.75834ZM11.5 7.08336C12.6714 7.08336 13.7948 7.54869 14.6231 8.37699C15.4514 9.20529 15.9167 10.3287 15.9167 11.5001C15.9167 12.6715 15.4514 13.7949 14.6231 14.6232C13.7948 15.4515 12.6714 15.9168 11.5 15.9168C10.3286 15.9168 9.20517 15.4515 8.37687 14.6232C7.54857 13.7949 7.08324 12.6715 7.08324 11.5001C7.08324 10.3287 7.54857 9.20529 8.37687 8.37699C9.20517 7.54869 10.3286 7.08336 11.5 7.08336ZM11.5 8.85005C10.7971 8.85005 10.1231 9.12925 9.62611 9.62623C9.12913 10.1232 8.84993 10.7973 8.84993 11.5001C8.84993 12.2029 9.12913 12.877 9.62611 13.374C10.1231 13.8709 10.7971 14.1501 11.5 14.1501C12.2028 14.1501 12.8769 13.8709 13.3738 13.374C13.8708 12.877 14.15 12.2029 14.15 11.5001C14.15 10.7973 13.8708 10.1232 13.3738 9.62623C12.8769 9.12925 12.2028 8.85005 11.5 8.85005Z" fill="white"></path></svg>